<?xml version="1.0" encoding="iso-8859-1"?>
<!-- Uploaded to: SVG Repo, www.svgrepo.com, Generator: SVG Repo Mixer Tools -->
<svg height="800px" width="800px" version="1.1" id="Layer_1" xmlns="http://www.w3.org/2000/svg" xmlns:xlink="http://www.w3.org/1999/xlink" 
	 viewBox="0 0 512 512" xml:space="preserve">
<circle style="fill:#E5E5E5;" cx="478.609" cy="256" r="22.261"/>
<circle style="fill:#87DFD6;" cx="356.174" cy="256" r="55.652"/>
<path style="fill:#4A7DBA;" d="M256,256c0,135.235-109.635,244.87-244.87,244.87V11.13c76.043,0,143.983,34.66,188.895,89.043
	c11.297,13.668,21.126,28.594,29.273,44.522c10.596,20.725,18.321,43.153,22.662,66.783C254.62,225.914,256,240.796,256,256z"/>
<g>
	<path style="fill:#FCFBCA;" d="M200.025,100.174h-99.851c-6.144,0-11.709,2.493-15.738,6.522
		c-4.029,4.029-6.522,9.594-6.522,15.738c0,12.299,9.962,22.261,22.261,22.261h22.261h66.783h40.081
		C221.151,128.768,211.322,113.842,200.025,100.174z"/>
	<circle style="fill:#FCFBCA;" cx="178.087" cy="345.043" r="22.261"/>
	<path style="fill:#FCFBCA;" d="M100.174,367.304H11.13v-44.522h89.043c12.295,0,22.261,9.966,22.261,22.261l0,0
		C122.435,357.338,112.469,367.304,100.174,367.304z"/>
	<path style="fill:#FCFBCA;" d="M256,256h-66.783c-12.299,0-22.261-9.962-22.261-22.261c0-6.144,2.493-11.709,6.522-15.738
		c4.029-4.029,9.594-6.522,15.738-6.522h62.742C254.62,225.914,256,240.796,256,256z"/>
</g>
<path d="M356.174,189.217c-36.824,0-66.783,29.959-66.783,66.783s29.959,66.783,66.783,66.783s66.783-29.959,66.783-66.783
	S392.998,189.217,356.174,189.217z M356.174,300.522c-24.549,0-44.522-19.972-44.522-44.522s19.972-44.522,44.522-44.522
	s44.522,19.972,44.522,44.522S380.723,300.522,356.174,300.522z"/>
<path d="M478.609,222.609c-18.412,0-33.391,14.979-33.391,33.391s14.979,33.391,33.391,33.391S512,274.412,512,256
	S497.021,222.609,478.609,222.609z M478.609,267.13c-6.137,0-11.13-4.993-11.13-11.13c0-6.137,4.993-11.13,11.13-11.13
	s11.13,4.993,11.13,11.13C489.739,262.137,484.746,267.13,478.609,267.13z"/>
<path d="M155.826,155.826c2.927,0,5.799-1.191,7.869-3.262c2.07-2.069,3.261-4.941,3.261-7.868c0-0.723-0.078-1.459-0.223-2.17
	c-0.134-0.712-0.356-1.415-0.634-2.081c-0.278-0.679-0.612-1.323-1.013-1.924c-0.412-0.613-0.879-1.181-1.391-1.693
	s-1.08-0.979-1.692-1.38c-0.601-0.4-1.247-0.746-1.914-1.024c-0.679-0.278-1.38-0.489-2.093-0.633c-1.436-0.291-2.905-0.291-4.341,0
	c-0.712,0.145-1.414,0.355-2.081,0.633c-0.679,0.278-1.325,0.624-1.926,1.024c-0.612,0.401-1.18,0.868-1.692,1.38
	c-2.07,2.07-3.261,4.942-3.261,7.869s1.191,5.799,3.261,7.868C150.027,154.635,152.899,155.826,155.826,155.826z"/>
<path d="M178.087,311.652c-18.412,0-33.391,14.979-33.391,33.391s14.979,33.391,33.391,33.391s33.391-14.979,33.391-33.391
	S196.499,311.652,178.087,311.652z M178.087,356.174c-6.137,0-11.13-4.993-11.13-11.13s4.993-11.13,11.13-11.13
	s11.13,4.993,11.13,11.13S184.224,356.174,178.087,356.174z"/>
<path d="M266.842,243.859c-0.543-11.591-1.858-23.116-3.935-34.391c-4.469-24.327-12.443-47.824-23.7-69.84
	c-1.06-2.071-2.148-4.129-3.263-6.171c-2.73-4.995-5.646-9.888-8.701-14.69c-5.688-8.94-11.904-17.536-18.638-25.683
	c-0.003-0.004-0.008-0.009-0.012-0.013C159.738,33.922,87.768,0,11.13,0C4.983,0,0,4.984,0,11.13v311.652v44.522V500.87
	C0,507.016,4.983,512,11.13,512c68.379,0,132.666-26.63,181.019-74.981C240.502,388.665,267.13,324.379,267.13,256
	c0-1.959-0.022-3.917-0.067-5.874C267.017,248.036,266.94,245.947,266.842,243.859z M242.492,222.609
	c0.031,0.218,0.067,0.436,0.097,0.654c0.141,1.011,0.269,2.025,0.397,3.039c0.1,0.791,0.205,1.582,0.297,2.375
	c0.12,1.038,0.226,2.078,0.333,3.119c0.079,0.775,0.166,1.548,0.237,2.324c0.099,1.074,0.181,2.152,0.267,3.227
	c0.059,0.746,0.126,1.49,0.177,2.236c0.08,1.16,0.141,2.323,0.205,3.485c0.032,0.601,0.073,1.201,0.102,1.802h-55.387
	c-6.137,0-11.13-4.993-11.13-11.13c0-2.97,1.159-5.764,3.262-7.867c2.104-2.105,4.897-3.263,7.868-3.263H242.492z M22.261,333.913
	h77.913c6.137,0,11.13,4.993,11.13,11.13s-4.993,11.13-11.13,11.13H22.261V333.913z M22.261,489.478V378.435h77.913
	c18.412,0,33.391-14.979,33.391-33.391s-14.979-33.391-33.391-33.391H22.261V22.522c57.548,2.714,111.563,26.39,152.462,66.521
	h-74.549c-8.915,0-17.3,3.474-23.61,9.784c-6.308,6.309-9.781,14.692-9.781,23.608c0,18.412,14.979,33.391,33.391,33.391h22.261
	c6.147,0,11.13-4.984,11.13-11.13s-4.983-11.13-11.13-11.13h-22.261c-6.137,0-11.13-4.993-11.13-11.13
	c0-2.97,1.159-5.764,3.262-7.867c2.104-2.105,4.899-3.263,7.868-3.263h94.519c0.118,0.149,0.239,0.295,0.356,0.443
	c0.837,1.066,1.655,2.148,2.473,3.228c0.506,0.67,1.023,1.33,1.523,2.005c0.923,1.245,1.822,2.509,2.719,3.772
	c0.375,0.529,0.761,1.046,1.131,1.577c1.258,1.801,2.491,3.618,3.698,5.455c0.206,0.313,0.401,0.634,0.605,0.949
	c0.994,1.529,1.979,3.065,2.937,4.617c0.043,0.07,0.085,0.144,0.129,0.214h-21.047c-6.147,0-11.13,4.984-11.13,11.13
	c0,6.146,4.983,11.13,11.13,11.13h33.15c6.782,14.273,12.084,29.18,15.831,44.522h-48.981c-8.915,0-17.3,3.474-23.61,9.784
	c-6.308,6.31-9.781,14.693-9.781,23.609c0,18.412,14.979,33.391,33.391,33.391h55.385
	C238.946,387.179,142.312,483.827,22.261,489.478z"/>
</svg>